<mxfile host="Electron" modified="2025-04-21T18:06:36.687Z" agent="Mozilla/5.0 (Windows NT 10.0; Win64; x64) AppleWebKit/537.36 (KHTML, like Gecko) draw.io/21.6.8 Chrome/114.0.5735.289 Electron/25.5.0 Safari/537.36" version="21.6.8" etag="SLp86gplMqlgNTg13yyF" type="device">
  <diagram name="Page-1" id="wkovz5vXKfszyQJFtELV">
    <mxGraphModel dx="1098" dy="820" grid="1" gridSize="10" guides="1" tooltips="1" connect="1" arrows="1" fold="1" page="1" pageScale="1" pageWidth="850" pageHeight="1100" math="0" shadow="0">
      <root>
        <mxCell id="0" />
        <mxCell id="1" parent="0" />
        <mxCell id="gvoCo1baOL0UwQFLHFZh-2" value="webcrawler_agent MCP" style="whiteSpace=wrap;strokeWidth=2;verticalAlign=top;" vertex="1" parent="1">
          <mxGeometry x="1437" y="794" width="246" height="84" as="geometry" />
        </mxCell>
        <mxCell id="gvoCo1baOL0UwQFLHFZh-3" value="MCP: list_candidates()" style="whiteSpace=wrap;strokeWidth=2;" vertex="1" parent="1">
          <mxGeometry x="1472" y="819" width="176" height="34" as="geometry" />
        </mxCell>
        <mxCell id="gvoCo1baOL0UwQFLHFZh-4" value="fake_auth_service MCP" style="whiteSpace=wrap;strokeWidth=2;verticalAlign=top;" vertex="1" parent="1">
          <mxGeometry x="1704" y="794" width="284" height="84" as="geometry" />
        </mxCell>
        <mxCell id="gvoCo1baOL0UwQFLHFZh-5" value="MCP: validate_credentials()" style="whiteSpace=wrap;strokeWidth=2;" vertex="1" parent="1">
          <mxGeometry x="1739" y="819" width="214" height="34" as="geometry" />
        </mxCell>
        <mxCell id="gvoCo1baOL0UwQFLHFZh-6" value="dbservice_agent MCP" style="whiteSpace=wrap;strokeWidth=2;verticalAlign=top;" vertex="1" parent="1">
          <mxGeometry x="20" y="641" width="240" height="84" as="geometry" />
        </mxCell>
        <mxCell id="gvoCo1baOL0UwQFLHFZh-7" value="MCP: create_record()" style="whiteSpace=wrap;strokeWidth=2;" vertex="1" parent="1">
          <mxGeometry x="55" y="666" width="170" height="34" as="geometry" />
        </mxCell>
        <mxCell id="gvoCo1baOL0UwQFLHFZh-8" value="webservice_agent MCP" style="whiteSpace=wrap;strokeWidth=2;verticalAlign=top;" vertex="1" parent="1">
          <mxGeometry x="280" y="641" width="271" height="84" as="geometry" />
        </mxCell>
        <mxCell id="gvoCo1baOL0UwQFLHFZh-9" value="MCP: search_candidates()" style="whiteSpace=wrap;strokeWidth=2;" vertex="1" parent="1">
          <mxGeometry x="315" y="666" width="201" height="34" as="geometry" />
        </mxCell>
        <mxCell id="gvoCo1baOL0UwQFLHFZh-10" value="auth_agent MCP" style="whiteSpace=wrap;strokeWidth=2;verticalAlign=top;" vertex="1" parent="1">
          <mxGeometry x="570" y="641" width="173" height="84" as="geometry" />
        </mxCell>
        <mxCell id="gvoCo1baOL0UwQFLHFZh-11" value="MCP: login()" style="whiteSpace=wrap;strokeWidth=2;" vertex="1" parent="1">
          <mxGeometry x="605" y="666" width="103" height="34" as="geometry" />
        </mxCell>
        <mxCell id="gvoCo1baOL0UwQFLHFZh-12" value="Platform Services (MCP-backed JSON-RPC)" style="whiteSpace=wrap;strokeWidth=2;verticalAlign=top;" vertex="1" parent="1">
          <mxGeometry x="764" y="513" width="1204" height="212" as="geometry" />
        </mxCell>
        <mxCell id="gvoCo1baOL0UwQFLHFZh-13" value="🔐 auth_agent" style="whiteSpace=wrap;strokeWidth=2;" vertex="1" parent="1">
          <mxGeometry x="1456" y="538" width="123" height="34" as="geometry" />
        </mxCell>
        <mxCell id="gvoCo1baOL0UwQFLHFZh-14" value="🔎 webservice_agent" style="whiteSpace=wrap;strokeWidth=2;" vertex="1" parent="1">
          <mxGeometry x="1211" y="538" width="171" height="34" as="geometry" />
        </mxCell>
        <mxCell id="gvoCo1baOL0UwQFLHFZh-15" value="💾 dbservice_agent" style="whiteSpace=wrap;strokeWidth=2;" vertex="1" parent="1">
          <mxGeometry x="799" y="538" width="159" height="34" as="geometry" />
        </mxCell>
        <mxCell id="gvoCo1baOL0UwQFLHFZh-16" value="📚 a2a_registry (Optional lookup)" style="whiteSpace=wrap;strokeWidth=2;" vertex="1" parent="1">
          <mxGeometry x="1163" y="666" width="260" height="34" as="geometry" />
        </mxCell>
        <mxCell id="gvoCo1baOL0UwQFLHFZh-17" value="🧪 fake_auth_service" style="whiteSpace=wrap;strokeWidth=2;" vertex="1" parent="1">
          <mxGeometry x="1760" y="666" width="173" height="34" as="geometry" />
        </mxCell>
        <mxCell id="gvoCo1baOL0UwQFLHFZh-18" value="🕷️ webcrawler_agent" style="whiteSpace=wrap;strokeWidth=2;" vertex="1" parent="1">
          <mxGeometry x="1473" y="666" width="175" height="34" as="geometry" />
        </mxCell>
        <mxCell id="gvoCo1baOL0UwQFLHFZh-19" value="HR Recruiting Assistant (ADK)" style="whiteSpace=wrap;strokeWidth=2;verticalAlign=top;" vertex="1" parent="1">
          <mxGeometry x="713" y="207" width="968" height="237" as="geometry" />
        </mxCell>
        <mxCell id="gvoCo1baOL0UwQFLHFZh-20" value="🤖 Agent Core (LLM + ADK)" style="whiteSpace=wrap;strokeWidth=2;" vertex="1" parent="1">
          <mxGeometry x="1413" y="232" width="210" height="34" as="geometry" />
        </mxCell>
        <mxCell id="gvoCo1baOL0UwQFLHFZh-21" value="ADK Tools" style="whiteSpace=wrap;strokeWidth=2;verticalAlign=top;" vertex="1" parent="1">
          <mxGeometry x="733" y="335" width="883" height="84" as="geometry" />
        </mxCell>
        <mxCell id="gvoCo1baOL0UwQFLHFZh-22" value="🛠️ login_user()" style="whiteSpace=wrap;strokeWidth=2;" vertex="1" parent="1">
          <mxGeometry x="1454" y="360" width="127" height="34" as="geometry" />
        </mxCell>
        <mxCell id="gvoCo1baOL0UwQFLHFZh-23" value="🛠️ search_for_candidates()" style="whiteSpace=wrap;strokeWidth=2;" vertex="1" parent="1">
          <mxGeometry x="1189" y="360" width="215" height="34" as="geometry" />
        </mxCell>
        <mxCell id="gvoCo1baOL0UwQFLHFZh-24" value="🛠️ save_candidate_record()" style="whiteSpace=wrap;strokeWidth=2;" vertex="1" parent="1">
          <mxGeometry x="768" y="360" width="219" height="34" as="geometry" />
        </mxCell>
        <mxCell id="gvoCo1baOL0UwQFLHFZh-25" value="🧑 HR User" style="whiteSpace=wrap;strokeWidth=2;" vertex="1" parent="1">
          <mxGeometry x="1468" y="20" width="99" height="34" as="geometry" />
        </mxCell>
        <mxCell id="gvoCo1baOL0UwQFLHFZh-26" value="🌐 ADK Web UI (localhost)" style="whiteSpace=wrap;strokeWidth=2;" vertex="1" parent="1">
          <mxGeometry x="1415" y="104" width="206" height="34" as="geometry" />
        </mxCell>
        <mxCell id="gvoCo1baOL0UwQFLHFZh-27" value="" style="curved=1;startArrow=none;endArrow=block;exitX=0.5017558396464646;exitY=1;entryX=0.4984166413834951;entryY=0;rounded=0;" edge="1" parent="1" source="gvoCo1baOL0UwQFLHFZh-25" target="gvoCo1baOL0UwQFLHFZh-26">
          <mxGeometry relative="1" as="geometry">
            <Array as="points" />
          </mxGeometry>
        </mxCell>
        <mxCell id="gvoCo1baOL0UwQFLHFZh-28" value="Chat Interaction" style="curved=1;startArrow=none;endArrow=block;exitX=0.4984166413834951;exitY=1;entryX=0.4984468005952381;entryY=0;rounded=0;" edge="1" parent="1" source="gvoCo1baOL0UwQFLHFZh-26" target="gvoCo1baOL0UwQFLHFZh-20">
          <mxGeometry relative="1" as="geometry">
            <Array as="points" />
          </mxGeometry>
        </mxCell>
        <mxCell id="gvoCo1baOL0UwQFLHFZh-29" value="A2A JSON-RPC call" style="curved=1;startArrow=none;endArrow=block;exitX=0.5013687253937008;exitY=1;entryX=0.5014132367886179;entryY=0;rounded=0;" edge="1" parent="1" source="gvoCo1baOL0UwQFLHFZh-22" target="gvoCo1baOL0UwQFLHFZh-13">
          <mxGeometry relative="1" as="geometry">
            <Array as="points" />
          </mxGeometry>
        </mxCell>
        <mxCell id="gvoCo1baOL0UwQFLHFZh-30" value="A2A JSON-RPC call" style="curved=1;startArrow=none;endArrow=block;exitX=0.5009720203488373;exitY=1;entryX=0.5012221308479532;entryY=0;rounded=0;" edge="1" parent="1" source="gvoCo1baOL0UwQFLHFZh-23" target="gvoCo1baOL0UwQFLHFZh-14">
          <mxGeometry relative="1" as="geometry">
            <Array as="points" />
          </mxGeometry>
        </mxCell>
        <mxCell id="gvoCo1baOL0UwQFLHFZh-31" value="A2A JSON-RPC call" style="curved=1;startArrow=none;endArrow=block;exitX=0.5031571061643836;exitY=1;entryX=0.49805915880503143;entryY=0;rounded=0;" edge="1" parent="1" source="gvoCo1baOL0UwQFLHFZh-24" target="gvoCo1baOL0UwQFLHFZh-15">
          <mxGeometry relative="1" as="geometry">
            <Array as="points" />
          </mxGeometry>
        </mxCell>
        <mxCell id="gvoCo1baOL0UwQFLHFZh-32" value="MCP call" style="curved=1;startArrow=none;endArrow=block;exitX=0.00011115345528455284;exitY=0.6959492732960003;entryX=1.0048543689320388;entryY=0.33426805628679335;rounded=0;" edge="1" parent="1" source="gvoCo1baOL0UwQFLHFZh-13" target="gvoCo1baOL0UwQFLHFZh-11">
          <mxGeometry relative="1" as="geometry">
            <Array as="points">
              <mxPoint x="1041" y="607" />
              <mxPoint x="1041" y="641" />
            </Array>
          </mxGeometry>
        </mxCell>
        <mxCell id="gvoCo1baOL0UwQFLHFZh-33" value="A2A (lookup optional)" style="curved=1;startArrow=none;endArrow=block;exitX=0.00011115345528455284;exitY=0.7681970437629054;entryX=0.3081399882669416;entryY=0;rounded=0;" edge="1" parent="1" source="gvoCo1baOL0UwQFLHFZh-13" target="gvoCo1baOL0UwQFLHFZh-16">
          <mxGeometry relative="1" as="geometry">
            <Array as="points">
              <mxPoint x="1169" y="607" />
              <mxPoint x="1169" y="641" />
            </Array>
          </mxGeometry>
        </mxCell>
        <mxCell id="gvoCo1baOL0UwQFLHFZh-34" value="A2A JSON-RPC call" style="curved=1;startArrow=none;endArrow=block;exitX=1.0027153201219512;exitY=0.7844522319069791;entryX=0.4971888547687861;entryY=0;rounded=0;" edge="1" parent="1" source="gvoCo1baOL0UwQFLHFZh-13" target="gvoCo1baOL0UwQFLHFZh-17">
          <mxGeometry relative="1" as="geometry">
            <Array as="points">
              <mxPoint x="1846" y="607" />
            </Array>
          </mxGeometry>
        </mxCell>
        <mxCell id="gvoCo1baOL0UwQFLHFZh-35" value="MCP call" style="curved=1;startArrow=none;endArrow=block;exitX=0.4971888547687861;exitY=1;entryX=0.5000638872663551;entryY=0;rounded=0;" edge="1" parent="1" source="gvoCo1baOL0UwQFLHFZh-17" target="gvoCo1baOL0UwQFLHFZh-5">
          <mxGeometry relative="1" as="geometry">
            <Array as="points" />
          </mxGeometry>
        </mxCell>
        <mxCell id="gvoCo1baOL0UwQFLHFZh-36" value="MCP call" style="curved=1;startArrow=none;endArrow=block;exitX=0.0009251644736842105;exitY=0.8844138931406446;entryX=0.9972403606965174;entryY=0.2723357496056585;rounded=0;" edge="1" parent="1" source="gvoCo1baOL0UwQFLHFZh-14" target="gvoCo1baOL0UwQFLHFZh-9">
          <mxGeometry relative="1" as="geometry">
            <Array as="points">
              <mxPoint x="960" y="607" />
              <mxPoint x="960" y="641" />
            </Array>
          </mxGeometry>
        </mxCell>
        <mxCell id="gvoCo1baOL0UwQFLHFZh-37" value="A2A (lookup optional)" style="curved=1;startArrow=none;endArrow=block;exitX=0.5940732475657186;exitY=1;entryX=0.5811596769116302;entryY=0;rounded=0;" edge="1" parent="1" source="gvoCo1baOL0UwQFLHFZh-14" target="gvoCo1baOL0UwQFLHFZh-16">
          <mxGeometry relative="1" as="geometry">
            <Array as="points">
              <mxPoint x="1345" y="607" />
              <mxPoint x="1345" y="641" />
            </Array>
          </mxGeometry>
        </mxCell>
        <mxCell id="gvoCo1baOL0UwQFLHFZh-38" value="A2A JSON-RPC call" style="curved=1;startArrow=none;endArrow=block;exitX=1.0015190972222223;exitY=0.9910238829101793;entryX=0.5006584821428571;entryY=0;rounded=0;" edge="1" parent="1" source="gvoCo1baOL0UwQFLHFZh-14" target="gvoCo1baOL0UwQFLHFZh-18">
          <mxGeometry relative="1" as="geometry">
            <Array as="points">
              <mxPoint x="1561" y="607" />
            </Array>
          </mxGeometry>
        </mxCell>
        <mxCell id="gvoCo1baOL0UwQFLHFZh-39" value="MCP call" style="curved=1;startArrow=none;endArrow=block;exitX=0.5006584821428571;exitY=1;entryX=0.5034956498579546;entryY=0;rounded=0;" edge="1" parent="1" source="gvoCo1baOL0UwQFLHFZh-18" target="gvoCo1baOL0UwQFLHFZh-3">
          <mxGeometry relative="1" as="geometry">
            <Array as="points" />
          </mxGeometry>
        </mxCell>
        <mxCell id="gvoCo1baOL0UwQFLHFZh-40" value="MCP call" style="curved=1;startArrow=none;endArrow=block;exitX=0.49805915880503143;exitY=1;entryX=0.9984375;entryY=0.35800826406928615;rounded=0;" edge="1" parent="1" source="gvoCo1baOL0UwQFLHFZh-15" target="gvoCo1baOL0UwQFLHFZh-7">
          <mxGeometry relative="1" as="geometry">
            <Array as="points">
              <mxPoint x="878" y="641" />
            </Array>
          </mxGeometry>
        </mxCell>
        <mxCell id="gvoCo1baOL0UwQFLHFZh-41" value="Instructs tool use based on conversation" style="curved=1;startArrow=none;endArrow=block;rounded=0;" edge="1" parent="1" source="gvoCo1baOL0UwQFLHFZh-20" target="gvoCo1baOL0UwQFLHFZh-21">
          <mxGeometry relative="1" as="geometry">
            <Array as="points" />
          </mxGeometry>
        </mxCell>
      </root>
    </mxGraphModel>
  </diagram>
</mxfile>
